<?xml version="1.0" standalone="no"?>
<!DOCTYPE svg PUBLIC "-//W3C//DTD SVG 1.1//EN" "http://www.w3.org/Graphics/SVG/1.1/DTD/svg11.dtd" >
<svg xmlns="http://www.w3.org/2000/svg">
<metadata>
This is a custom SVG webfont generated by Font Squirrel.
Copyright   : Copyright c ShyFonts Type Foundry 1999 All rights reserved
</metadata>
<defs>
<font id="webfontv866ogdc" horiz-adv-x="1228" >
<font-face units-per-em="2048" ascent="1638" descent="-410" />
<missing-glyph horiz-adv-x="612" />
<glyph unicode=" "  horiz-adv-x="612" />
<glyph unicode="&#x09;" horiz-adv-x="612" />
<glyph unicode="&#xa0;" horiz-adv-x="612" />
<glyph unicode="!" horiz-adv-x="716" d="M102 0v512h41l-41 610v516h512v-516l-41 -610h41v-512h-512zM143 41h430v430h-43l43 653v473h-430v-473l43 -653h-43v-430zM205 102v308h307v-308h-307zM205 1126v410h307v-410l-41 -614h-225z" />
<glyph unicode="&#x22;" horiz-adv-x="1105" d="M102 1126v512h902v-452l-410 -410v350h-39l-350 -350v350h-103zM143 1167h103v-290l291 290h98v-290l328 327v393h-820v-430zM205 1229v307h307v-307l-205 -205v205h-102zM594 1229v307h307v-307l-205 -205v205h-102z" />
<glyph unicode="#" horiz-adv-x="1286" d="M102 676l60 696h164l14 164h696l-14 -164h164l-60 -696h-163l-15 -164h-696l14 164h-164zM147 717h164l-14 -164h614l15 164h164l51 614h-164l14 164h-614l-15 -164h-163zM215 778l14 164h164l13 164h-164l14 164h164l14 164h164l-14 -164h164l14 164h164l-15 -164h164 l-14 -164h-164l-12 -164h164l-15 -164h-164l-14 -164h-164l15 164h-164l-15 -164h-163l14 164h-164zM557 942h164l12 164h-164z" />
<glyph unicode="$" horiz-adv-x="1146" d="M102 315v330h177l-177 176v502l215 215v100h512v-100l215 -215v-330h-178l178 -178v-500l-215 -215v-100h-512v100zM143 334l215 -215v-78h430v78l216 215v463l-238 237h238v271l-216 215v77h-430v-77l-215 -215v-465l236 -236h-236v-270zM205 358v185h276v-92h185v229 h-277l-184 184v416l184 184h31v72h307v-72h31l184 -184v-184h-276v92h-185v-232h277l184 -184v-414l-184 -184h-31v-72h-307v72h-31z" />
<glyph unicode="%" horiz-adv-x="2306" d="M102 797v598l244 243h455l219 -219l45 219l506 -90l-109 -508l45 45h455l244 -243v-598l-244 -244h-455l-219 219l-45 -219l-506 90l109 508l-45 -45h-455zM143 815l222 -221h417l131 131l-127 -602l424 -76l95 442v-227l221 -221h418l221 221v561l-221 221h-418 l-131 -131l127 603l-424 75l-94 -444v229l-222 221h-417l-222 -221v-561zM184 831v529l197 196h385l197 -196v-529l-197 -196h-385zM502 952h143v287h-143v-287zM836 156l292 1388l345 -61l-293 -1389zM1346 279v528l196 197h385l197 -197v-528l-197 -197h-385zM1663 399 h143v287h-143v-287z" />
<glyph unicode="&#x26;" horiz-adv-x="1163" d="M102 315v418l86 86l-86 86v418l215 215v100h512v-100l215 -215v-330h-276v-348h295v-311l-234 -234v-100h-512v100zM143 334l215 -215v-78h430v78l234 233v252h-295v430h277v271l-216 215v77h-430v-77l-215 -215v-381l105 -105l-105 -104v-381zM205 358v332l129 129 l-129 129v332l184 184h31v72h307v-72h31l184 -184v-184h-276v92h-185v-232h185v-276h-185v-229h185v92h295v-166l-203 -203h-31v-72h-307v72h-31z" />
<glyph unicode="'" horiz-adv-x="716" d="M102 1126v512h512v-452l-409 -410v350h-103zM143 1167h103v-290l327 327v393h-430v-430zM205 1229v307h307v-307l-205 -205v205h-102z" />
<glyph unicode="(" horiz-adv-x="921" d="M102 264v1110l265 264h452v-512h-205v-614h205v-512h-452zM143 283l242 -242h393v430h-205v696h205v430h-393l-242 -241v-1073zM205 307v1024l205 205h307v-307h-205v-819h205v-308h-307z" />
<glyph unicode=")" horiz-adv-x="921" d="M102 0v512h205v614h-205v512h453l264 -264v-1110l-264 -264h-453zM143 41h394l241 242v1073l-241 241h-394v-430h205v-696h-205v-430zM205 102v308h205v819h-205v307h307l205 -205v-1024l-205 -205h-307z" />
<glyph unicode="*" horiz-adv-x="1146" d="M102 870q0 92 72 154q-72 61 -72 154q0 84 60 143q61 61 145 61q34 0 68 -12q18 78 71 121q53 45 127 45t127 -45q53 -43 72 -121q34 12 68 12q86 0 143 -61q61 -61 61 -143q0 -92 -71 -154q72 -61 71 -154q0 -84 -61 -145q-57 -59 -143 -59q-34 0 -68 12 q-18 -78 -72 -121q-53 -45 -126.5 -45t-127.5 45q-53 43 -71 121q-34 -12 -68 -12q-86 0 -145.5 59t-59.5 145zM143 870q0 -68 47 -114q49 -49 117 -49q29 0 101 32q18 -186 165.5 -186t165.5 186q72 -33 101 -32q66 0 115 49t49 114q0 84 -101 154q100 70 101 154 q0 66 -49.5 114.5t-114.5 48.5q-29 0 -101 -32q-18 186 -165.5 186t-165.5 -186q-72 33 -101 32q-68 0 -117 -49q-47 -47 -47 -114q0 -84 101 -154q-101 -70 -101 -154zM205 870q0 61 51 88l276 58v16l-276 58q-51 27 -51 88q0 29 14 51q31 51 88 51q29 0 51 -14l189 -211 q2 2 14 8l-90 268q0 23 8 39q10 20 23 33q14 14 30.5 22.5t40.5 8.5q23 0 39 -9q20 -10 32.5 -22t23.5 -33q8 -16 8 -39l-90 -268q12 -6 14 -8l188 211q23 14 52 14q57 0 88 -51q14 -23 14 -51q0 -61 -51 -88l-279 -58q0 -2 1 -5l1 -3v-8l277 -58q51 -27 51 -88 q0 -29 -14 -51q-31 -51 -88 -51q-29 0 -52 14l-188 211q-2 -2 -14 -8l90 -268q0 -23 -8 -39q-10 -20 -22.5 -32.5t-33.5 -22.5q-16 -8 -39 -9q-25 0 -41 8.5t-30 22.5q-12 12 -23 33q-8 16 -8 39l90 268q-12 6 -14 8l-189 -211q-23 -14 -51 -14q-57 0 -88 51q-14 22 -14 51z " />
<glyph unicode="+" horiz-adv-x="1024" d="M102 614v410h205v205h410v-205h205v-410h-205v-204h-410v204h-205zM143 655h205v-204h328v204h205v328h-205v205h-328v-205h-205v-328zM205 717v205h205v204h204v-204h205v-205h-205v-205h-204v205h-205z" />
<glyph unicode="," horiz-adv-x="716" d="M102 0v512h512v-453l-409 -407v348h-103zM143 41h103v-291l327 328v393h-430v-430zM205 102v308h307v-308l-205 -202v202h-102z" />
<glyph unicode="-" horiz-adv-x="1024" d="M102 614v410h820v-410h-820zM143 655h738v328h-738v-328zM205 717v205h614v-205h-614z" />
<glyph unicode="." horiz-adv-x="716" d="M102 -100v510h512v-510h-512zM143 -59h430v428h-430v-428zM205 0v307h307v-307h-307z" />
<glyph unicode="/" horiz-adv-x="823" d="M0 88l319 1550l506 -88l-321 -1550zM47 123l424 -76l307 1469l-424 75zM119 172l284 1348l304 -54l-285 -1347z" />
<glyph unicode="0" d="M102 264v1110l265 264h495l264 -264v-1110l-264 -264h-495zM143 283l242 -242h459l241 242v1073l-241 241h-459l-242 -241v-1073zM205 307v1024l205 205h409l205 -205v-1024l-205 -205h-409zM512 410h205v819h-205v-819z" />
<glyph unicode="1" horiz-adv-x="716" d="M102 0v1638h512v-1638h-512zM143 41h430v1556h-430v-1556zM205 102v1434h307v-1434h-307z" />
<glyph unicode="2" d="M102 0v811l213 213h-213v350l265 264h495l264 -264v-547l-264 -264h-248v-51h512v-512h-1024zM143 41h942v430h-512v133h271l241 242v510l-241 241h-459l-242 -241v-291h273l-273 -272v-752zM205 102v666l205 205h307v256h-205v-103h-307v205l205 205h409l205 -205v-461 l-205 -204h-307v-256h512v-308h-819z" />
<glyph unicode="3" horiz-adv-x="1247" d="M102 285v329h328v410h-307v350l264 264h496l264 -264v-454l-100 -101l100 -100v-455l-264 -264h-496zM143 303l263 -262h458l242 242v417l-119 119l119 119v418l-242 241h-458l-242 -241v-291h307v-492h-328v-270zM205 328v184h327v-102h205v256h-205v307h205v256h-205 v-103h-307v205l205 205h410l204 -205v-368l-143 -144l143 -143v-369l-204 -205h-410z" />
<glyph unicode="4" d="M102 563v1075h1024v-1638h-512v563h-512zM143 604h512v-563h430v1556h-942v-993zM205 666v870h307v-563h205v563h307v-1434h-307v564h-512z" />
<glyph unicode="5" d="M102 264v350h213l-213 213v811h1024v-512h-512v-51h248l264 -264v-547l-264 -264h-495zM143 283l242 -242h459l241 242v510l-241 241h-271v133h512v430h-942v-751l273 -273h-273v-290zM205 307v205h307v-102h205v256h-307l-205 204v666h819v-307h-512v-256h307l205 -205 v-461l-205 -205h-409z" />
<glyph unicode="6" d="M102 264v1110l265 264h495l264 -264v-350h-213l213 -213v-547l-264 -264h-495zM143 283l242 -242h459l241 242v510l-272 272h272v291l-241 241h-459l-242 -241v-1073zM205 307v1024l205 205h409l205 -205v-205h-307v103h-205v-256h307l205 -205v-461l-205 -205h-409z M512 410h205v256h-205v-256z" />
<glyph unicode="7" horiz-adv-x="1280" d="M102 1024v614h1127v-430l-527 -1208h-571l447 1024h-476zM143 1065h496l-446 -1024h483l512 1176v380h-1045v-532zM205 1126v410h921v-307l-491 -1127h-348l491 1127h-266v-103h-307z" />
<glyph unicode="8" horiz-adv-x="1269" d="M102 285v413l121 121l-100 101v454l264 264h496l264 -264v-454l-100 -101l120 -121v-413l-284 -285h-496zM143 303l263 -262h458l262 262v377l-139 139l119 119v418l-242 241h-458l-242 -241v-418l119 -119l-140 -139v-377zM205 328v327l164 164l-144 144v368l205 205 h410l204 -205v-368l-143 -144l164 -164v-327l-225 -226h-410zM532 410h205v256h-205v-256zM532 973h205v256h-205v-256z" />
<glyph unicode="9" d="M102 264v350h213l-213 213v547l265 264h495l264 -264v-1110l-264 -264h-495zM143 283l242 -242h459l241 242v1073l-241 241h-459l-242 -241v-510l273 -273h-273v-290zM205 307v205h307v-102h205v256h-307l-205 204v461l205 205h409l205 -205v-1024l-205 -205h-409z M512 973h205v256h-205v-256z" />
<glyph unicode=":" horiz-adv-x="716" d="M102 0v512h512v-512h-512zM102 717v512h512v-512h-512zM143 41h430v430h-430v-430zM143 758h430v430h-430v-430zM205 102v308h307v-308h-307zM205 819v307h307v-307h-307z" />
<glyph unicode=";" horiz-adv-x="716" d="M102 0v512h512v-453l-409 -407v348h-103zM102 717v512h512v-512h-512zM143 41h103v-291l327 328v393h-430v-430zM143 758h430v430h-430v-430zM205 102v308h307v-308l-205 -202v202h-102zM205 819v307h307v-307h-307z" />
<glyph unicode="=" horiz-adv-x="1024" d="M102 451v737h820v-737h-820zM143 492h738v655h-738v-655zM205 553v205h614v-205h-614zM205 881v204h614v-204h-614z" />
<glyph unicode="?" d="M102 0v811l213 213h-213v350l265 264h495l264 -264v-547l-264 -264h-248v-563h-512zM143 41h430v563h271l241 242v510l-241 241h-459l-242 -241v-291h273l-273 -272v-752zM205 102v308h307v-308h-307zM205 512v256l205 205h307v256h-205v-103h-307v205l205 205h409 l205 -205v-461l-205 -204h-307v-154h-307z" />
<glyph unicode="A" horiz-adv-x="1187" d="M0 0l305 1638h580l303 -1638h-516l-35 205h-86l-35 -205h-516zM49 41h432l35 205h156l35 -205h432l-289 1556h-512zM123 102l266 1434h410l266 -1434h-307l-35 205h-258l-35 -205h-307zM518 614h152l-76 445z" />
<glyph unicode="B" horiz-adv-x="1247" d="M102 0v1638h760l264 -264v-454l-100 -101l121 -121v-413l-285 -285h-760zM143 41h701l262 262v377l-139 139l118 119v418l-241 241h-701v-1556zM205 102v1434h614l205 -205v-368l-143 -144l163 -164v-327l-225 -226h-614zM512 410h205v256h-205v-256zM512 973h205v256 h-205v-256z" />
<glyph unicode="C" d="M102 264v1110l265 264h495l264 -264v-452h-368v-205h368v-453l-264 -264h-495zM143 283l242 -242h459l241 242v393h-368v287h368v393l-241 241h-459l-242 -241v-1073zM205 307v1024l205 205h409l205 -205v-307h-307v205h-205v-819h205v204h307v-307l-205 -205h-409z" />
<glyph unicode="D" d="M102 0v1638h760l264 -264v-1110l-264 -264h-760zM143 41h701l241 242v1073l-241 241h-701v-1556zM205 102v1434h614l205 -205v-1024l-205 -205h-614zM512 410h205v819h-205v-819z" />
<glyph unicode="E" horiz-adv-x="1124" d="M102 0v1638h922v-512h-410v-51h410v-512h-410v-51h410v-512h-922zM143 41h840v430h-410v133h410v430h-410v133h410v430h-840v-1556zM205 102v1434h717v-307h-410v-256h410v-307h-410v-256h410v-308h-717z" />
<glyph unicode="F" horiz-adv-x="1073" d="M102 0v1638h922v-512h-410v-51h410v-512h-410v-563h-512zM143 41h430v563h410v430h-410v133h410v430h-840v-1556zM205 102v1434h717v-307h-410v-256h410v-307h-410v-564h-307z" />
<glyph unicode="G" d="M102 264v1110l265 264h495l264 -264v-1110l-264 -264h-495zM143 283l242 -242h459l241 242v1073l-241 241h-459l-242 -241v-1073zM205 307v1024l205 205h409l205 -205v-307h-307v205h-205v-819h205v153h-103v307h410v-563l-205 -205h-409z" />
<glyph unicode="H" d="M102 0v1638h1024v-1638h-1024zM143 41h942v1556h-942v-1556zM205 102v1434h307v-563h205v563h307v-1434h-307v564h-205v-564h-307z" />
<glyph unicode="I" horiz-adv-x="716" d="M102 0v1638h512v-1638h-512zM143 41h430v1556h-430v-1556zM205 102v1434h307v-1434h-307z" />
<glyph unicode="J" horiz-adv-x="1177" d="M51 264v453h512v921h512v-1374l-264 -264h-496zM92 283l242 -242h459l241 242v1314h-430v-921h-512v-393zM154 307v307h307v-204h205v1126h307v-1229l-205 -205h-410z" />
<glyph unicode="K" horiz-adv-x="1271" d="M102 0v1638h512v-84l31 84h524l-292 -819l292 -819h-524l-31 84v-84h-512zM143 41h430v281l101 -281h438l-278 778l278 778h-438l-101 -280v280h-430v-1556zM205 102v1434h307v-573l205 573h307l-256 -717l256 -717h-307l-205 574v-574h-307z" />
<glyph unicode="L" horiz-adv-x="1073" d="M102 0v1638h512v-1126h410v-512h-922zM143 41h840v430h-410v1126h-430v-1556zM205 102v1434h307v-1126h410v-308h-717z" />
<glyph unicode="M" horiz-adv-x="1433" d="M102 0v1638h480l135 -338l135 338h479v-1638h-512v82l-102 -254l-103 254v-82h-512zM143 41h430v254l144 -356l143 356v-254h430v1556h-409l-164 -407l-164 407h-410v-1556zM205 102v1434h307l205 -512l205 512h307v-1434h-307v512l-205 -512l-205 512v-512h-307z" />
<glyph unicode="N" d="M102 0v1638h482l30 -84v84h512v-1638h-481l-31 84v-84h-512zM143 41h430v281l101 -281h411v1556h-430v-280l-100 280h-412v-1556zM205 102v1434h307l205 -573v573h307v-1434h-307l-205 574v-574h-307z" />
<glyph unicode="O" d="M102 264v1110l265 264h495l264 -264v-1110l-264 -264h-495zM143 283l242 -242h459l241 242v1073l-241 241h-459l-242 -241v-1073zM205 307v1024l205 205h409l205 -205v-1024l-205 -205h-409zM512 410h205v819h-205v-819z" />
<glyph unicode="P" horiz-adv-x="1177" d="M102 0v1638h760l264 -264v-547l-264 -264h-248v-563h-512zM143 41h430v563h271l241 242v510l-241 241h-701v-1556zM205 102v1434h614l205 -205v-461l-205 -204h-307v-564h-307zM512 973h205v256h-205v-256z" />
<glyph unicode="Q" horiz-adv-x="1259" d="M102 264v1110l265 264h495l264 -264v-964h82v-410h-841zM143 283l242 -242h782v328h-82v987l-241 241h-459l-242 -241v-1073zM205 307v1024l205 205h409l205 -205v-921l-102 -103h184v-205h-696zM512 410h205v819h-205v-819z" />
<glyph unicode="R" d="M102 0v1638h760l264 -264v-454l-100 -101l100 -100v-719h-1024zM143 41h942v659l-118 119l118 119v418l-241 241h-701v-1556zM205 102v1434h614l205 -205v-368l-143 -144l143 -143v-574h-307v564h-205v-564h-307zM512 973h205v256h-205v-256z" />
<glyph unicode="S" d="M102 264v350h213l-213 213v547l265 264h495l264 -264v-350h-213l213 -213v-547l-264 -264h-495zM143 283l242 -242h459l241 242v510l-272 272h272v291l-241 241h-459l-242 -241v-510l273 -273h-273v-290zM205 307v205h307v-102h205v256h-307l-205 204v461l205 205h409 l205 -205v-205h-307v103h-205v-256h307l205 -205v-461l-205 -205h-409z" />
<glyph unicode="T" horiz-adv-x="1124" d="M0 1126v512h1126v-512h-307v-1126h-512v1126h-307zM41 1167h307v-1126h430v1126h307v430h-1044v-430zM102 1229v307h922v-307h-307v-1127h-307v1127h-308z" />
<glyph unicode="U" d="M102 264v1374h1024v-1374l-264 -264h-495zM143 283l242 -242h459l241 242v1314h-942v-1314zM205 307v1229h307v-1126h205v1126h307v-1229l-205 -205h-409z" />
<glyph unicode="V" horiz-adv-x="1187" d="M0 1638h516l78 -452l78 452h516l-303 -1638h-580zM49 1597l289 -1556h512l289 1556h-432l-113 -653l-113 653h-432zM123 1536h307l164 -956l164 956h307l-266 -1434h-410z" />
<glyph unicode="W" horiz-adv-x="1595" d="M0 1638h514l66 -319l49 319h340l49 -319l65 319h514l-303 -1638h-991zM49 1597l289 -1556h432l27 192l32 -192h431l288 1556h-430l-106 -507l-78 507h-270l-78 -507l-107 507h-430zM123 1536h307l164 -793l123 793h164l123 -793l163 793h308l-267 -1434h-327l-82 478 l-82 -478h-328z" />
<glyph unicode="X" horiz-adv-x="1232" d="M0 0l350 819l-350 819h530l86 -200l86 200h531l-352 -819l352 -819h-531l-86 201l-86 -201h-530zM61 41h443l112 264l113 -264h440l-333 778l333 778h-440l-113 -264l-112 264h-443l334 -778zM156 102l307 717l-307 717h307l153 -358l154 358h307l-307 -717l307 -717 h-307l-154 359l-153 -359h-307z" />
<glyph unicode="Y" horiz-adv-x="1224" d="M0 1638h530l82 -217l84 217h529l-357 -880v-758h-512v758zM61 1597l336 -831v-725h430v725l338 831h-440l-113 -288l-110 288h-441zM152 1536h307l153 -399l154 399h307l-307 -758v-676h-307v676z" />
<glyph unicode="Z" d="M102 0v436l379 690h-379v512h1024v-436l-378 -690h378v-512h-1024zM143 41h942v430h-407l407 741v385h-942v-430h408l-408 -741v-385zM205 102v308l450 819h-450v307h819v-307l-451 -819h451v-308h-819z" />
<glyph unicode="[" horiz-adv-x="921" d="M102 0v1638h717v-512h-205v-614h205v-512h-717zM143 41h635v430h-205v696h205v430h-635v-1556zM205 102v1434h512v-307h-205v-819h205v-308h-512z" />
<glyph unicode="\" horiz-adv-x="823" d="M0 1550l506 88l319 -1550l-503 -88zM47 1516l307 -1469l424 76l-307 1468zM119 1466l303 54l285 -1348l-304 -53z" />
<glyph unicode="]" horiz-adv-x="921" d="M102 0v512h205v614h-205v512h717v-1638h-717zM143 41h635v1556h-635v-430h205v-696h-205v-430zM205 102v308h205v819h-205v307h512v-1434h-512z" />
<glyph unicode="a" horiz-adv-x="1093" d="M0 0l279 1495h538l277 -1495h-486l-30 184h-60l-33 -184h-485zM49 41h402l32 184h129l31 -184h401l-262 1413h-471zM123 102l239 1291h369l240 -1291h-277l-30 185h-234l-31 -185h-276zM479 563h135l-67 400z" />
<glyph unicode="b" horiz-adv-x="1163" d="M102 0v1495h699l243 -244v-417l-86 -86l105 -105v-381l-262 -262h-699zM143 41h639l240 240v344l-123 123l105 104v381l-222 221h-639v-1413zM205 102v1291h553l184 -185v-331l-129 -129l148 -148v-295l-203 -203h-553zM481 379h185v229h-185v-229zM481 885h185v231h-185 v-231z" />
<glyph unicode="c" horiz-adv-x="1146" d="M102 244v1007l244 244h455l243 -244v-422h-337v-163h337v-422l-243 -244h-455zM143 262l222 -221h417l222 221v363h-338v245h338v363l-222 221h-417l-222 -221v-971zM205 287v921l184 185h369l184 -185v-276h-276v184h-185v-737h185v184h276v-276l-184 -185h-369z" />
<glyph unicode="d" horiz-adv-x="1146" d="M102 0v1495h699l243 -244v-1007l-243 -244h-699zM143 41h639l222 221v971l-222 221h-639v-1413zM205 102v1291h553l184 -185v-921l-184 -185h-553zM481 379h185v737h-185v-737z" />
<glyph unicode="e" horiz-adv-x="1054" d="M102 0v1495h850v-481h-368v-27h368v-481h-368v-25h368v-481h-850zM143 41h768v399h-368v107h368v399h-368v109h368v399h-768v-1413zM205 102v1291h645v-277h-369v-231h369v-277h-369v-229h369v-277h-645z" />
<glyph unicode="f" horiz-adv-x="1003" d="M102 0v1495h850v-481h-368v-27h368v-481h-368v-506h-482zM143 41h400v506h368v399h-368v109h368v399h-768v-1413zM205 102v1291h645v-277h-369v-231h369v-277h-369v-506h-276z" />
<glyph unicode="g" horiz-adv-x="1146" d="M102 244v1007l244 244h455l243 -244v-1007l-243 -244h-455zM143 262l222 -221h417l222 221v971l-222 221h-417l-222 -221v-971zM205 287v921l184 185h369l184 -185v-276h-276v184h-185v-737h185v137h-93v277h369v-506l-184 -185h-369z" />
<glyph unicode="h" horiz-adv-x="1146" d="M102 0v1495h942v-1495h-942zM143 41h861v1413h-861v-1413zM205 102v1291h276v-508h185v508h276v-1291h-276v506h-185v-506h-276z" />
<glyph unicode="i" horiz-adv-x="684" d="M102 0v1495h482v-1495h-482zM143 41h400v1413h-400v-1413zM205 102v1291h276v-1291h-276z" />
<glyph unicode="j" horiz-adv-x="1095" d="M51 244v422h461v829h481v-1251l-243 -244h-455zM92 262l221 -221h418l221 221v1192h-399v-829h-461v-363zM154 287v276h276v-184h184v1014h277v-1106l-184 -185h-369z" />
<glyph unicode="k" horiz-adv-x="1189" d="M102 0v1495h985l-266 -747l266 -748h-985zM143 41h400v223l80 -223h407l-254 707l254 706h-407l-80 -223v223h-400v-1413zM205 102v1291h276v-516l185 516h276l-231 -645l231 -646h-276l-185 516v-516h-276z" />
<glyph unicode="l" horiz-adv-x="1054" d="M102 0v1495h482v-1014h368v-481h-850zM143 41h768v399h-368v1014h-400v-1413zM205 102v1291h276v-1014h369v-277h-645z" />
<glyph unicode="m" horiz-adv-x="1329" d="M102 0v1495h449l115 -287l114 287h449v-1495h-481v31l-82 -203l-82 203v-31h-482zM143 41h400v203l123 -305l122 305v-203h400v1413h-379l-143 -356l-144 356h-379v-1413zM205 102v1291h276l185 -461l184 461h276v-1291h-276v461l-184 -461l-185 461v-461h-276z" />
<glyph unicode="n" horiz-adv-x="1146" d="M102 0v1495h942v-1495h-942zM143 41h400v223l80 -223h381v1413h-400v-223l-80 223h-381v-1413zM205 102v1291h276l185 -516v516h276v-1291h-276l-185 516v-516h-276z" />
<glyph unicode="o" horiz-adv-x="1146" d="M102 244v1007l244 244h455l243 -244v-1007l-243 -244h-455zM143 262l222 -221h417l222 221v971l-222 221h-417l-222 -221v-971zM205 287v921l184 185h369l184 -185v-921l-184 -185h-369zM481 379h185v737h-185v-737z" />
<glyph unicode="p" horiz-adv-x="1095" d="M102 0v1495h699l243 -244v-499l-243 -246h-217v-506h-482zM143 41h400v506h239l222 221v465l-222 221h-639v-1413zM205 102v1291h553l184 -185v-415l-184 -185h-277v-506h-276zM481 885h185v231h-185v-231z" />
<glyph unicode="q" horiz-adv-x="1167" d="M102 244v1007l244 244h455l243 -244v-862h74v-389h-772zM143 262l222 -221h712v307h-73v885l-222 221h-417l-222 -221v-971zM205 287v921l184 185h369l184 -185v-829l-92 -92h166v-185h-627zM481 379h185v737h-185v-737z" />
<glyph unicode="r" horiz-adv-x="1146" d="M102 0v1495h699l243 -244v-417l-86 -86l86 -86v-662h-942zM143 41h861v602l-105 105l105 104v381l-222 221h-639v-1413zM205 102v1291h553l184 -185v-331l-129 -129l129 -130v-516h-276v506h-185v-506h-276zM481 885h185v231h-185v-231z" />
<glyph unicode="s" horiz-adv-x="1146" d="M102 248v330h179l-179 178v499l244 244h455l243 -244v-329h-178l178 -178v-500l-243 -244h-455zM143 266l222 -221h417l222 221v465l-236 236h236v270l-222 221h-417l-222 -221v-465l236 -235h-236v-271zM193 287v184h276v-92h184v229h-276l-184 185v415l184 185h368 l185 -185v-184h-277v92h-184v-231h276l185 -185v-413l-185 -185h-368z" />
<glyph unicode="t" horiz-adv-x="1032" d="M0 1014v481h1034v-481h-276v-1014h-482v1014h-276zM41 1055h276v-1014h400v1014h276v399h-952v-399zM102 1116v277h830v-277h-277v-1014h-276v1014h-277z" />
<glyph unicode="u" horiz-adv-x="1146" d="M102 244v1251h942v-1251l-243 -244h-455zM143 262l222 -221h417l222 221v1192h-861v-1192zM205 287v1106h276v-1014h185v1014h276v-1106l-184 -185h-369z" />
<glyph unicode="v" horiz-adv-x="1093" d="M0 1495h485l62 -356l61 356h486l-277 -1495h-541zM49 1454l262 -1413h471l262 1413h-401l-96 -559l-96 559h-402zM123 1393h276l148 -861l147 861h277l-240 -1291h-369z" />
<glyph unicode="w" horiz-adv-x="1460" d="M0 1495h483l49 -240l37 240h324l37 -240l49 240h483l-276 -1495h-910zM49 1454l262 -1413h398l22 127l23 -127h397l262 1413h-399l-90 -430l-66 430h-254l-65 -430l-90 430h-400zM123 1393h276l148 -713l110 713h148l110 -713l148 713h276l-239 -1291h-295l-74 430 l-74 -430h-295z" />
<glyph unicode="x" horiz-adv-x="1140" d="M0 0l322 748l-322 747h500l69 -166l72 166h500l-322 -747l322 -748h-500l-72 166l-69 -166h-500zM63 41h410l96 227l99 -227h409l-301 707l301 706h-409l-99 -227l-96 227h-410l302 -706zM156 102l276 646l-276 645h276l137 -324l140 324h276l-276 -645l276 -646h-276 l-140 322l-137 -322h-276z" />
<glyph unicode="y" horiz-adv-x="1132" d="M0 1495h498l67 -176l70 176h498l-326 -805v-690h-481v690zM59 1454l308 -756v-657h399v657l307 756h-411l-97 -250l-94 250h-412zM152 1393h276l137 -361l140 361h276l-276 -682v-609h-277v609z" />
<glyph unicode="z" horiz-adv-x="1146" d="M102 0v406l334 608h-334v481h942v-405l-333 -609h333v-481h-942zM143 41h861v399h-363l363 660v354h-861v-399h363l-363 -660v-354zM205 102v277l405 737h-405v277h737v-277l-405 -737h405v-277h-737z" />
<glyph unicode="{" horiz-adv-x="1042" d="M102 731v176l123 103v364l264 264h453v-512h-205v-247l-59 -60l59 -59v-248h205v-512h-453l-264 264v365zM143 750l123 -103v-364l242 -242h393v430h-205v270l-78 78l78 78v270h205v430h-393l-242 -241v-365l-123 -102v-139zM205 778v82l123 103v368l204 205h308v-307 h-205v-307l-103 -103l103 -102v-307h205v-308h-308l-204 205v369z" />
<glyph unicode="|" horiz-adv-x="716" d="M102 0v1638h512v-1638h-512zM143 41h430v1556h-430v-1556zM205 102v1434h307v-1434h-307z" />
<glyph unicode="}" horiz-adv-x="1042" d="M102 0v512h205v248l60 59l-60 60v247h-205v512h453l264 -264v-364l123 -103v-176l-123 -102v-365l-264 -264h-453zM143 41h394l241 242v364l123 103v139l-123 102v365l-241 241h-394v-430h205v-270l78 -78l-78 -78v-270h-205v-430zM205 102v308h205v307l102 102l-102 103 v307h-205v307h307l205 -205v-368l123 -103v-82l-123 -102v-369l-205 -205h-307z" />
<glyph horiz-adv-x="716" d="M102 776v453l410 409v-350h102v-512h-512zM143 817h430v430h-102v291l-328 -328v-393zM205 879v307l205 205v-205h102v-307h-307z" />
<glyph unicode="&#x2018;" horiz-adv-x="716" d="M102 776v453l410 409v-350h102v-512h-512zM143 817h430v430h-102v291l-328 -328v-393zM205 879v307l205 205v-205h102v-307h-307z" />
<glyph horiz-adv-x="716" d="M102 1126v512h512v-452l-409 -410v350h-103zM143 1167h103v-290l327 327v393h-430v-430zM205 1229v307h307v-307l-205 -205v205h-102z" />
<glyph unicode="&#x2019;" horiz-adv-x="716" d="M102 1126v512h512v-452l-409 -410v350h-103zM143 1167h103v-290l327 327v393h-430v-430zM205 1229v307h307v-307l-205 -205v205h-102z" />
<glyph horiz-adv-x="1105" d="M102 776v453l410 409v-350h39l350 350v-350h103v-512h-902zM143 817h820v430h-103v291l-291 -291h-98v291l-328 -328v-393zM205 879v307l205 205v-205h102v-307h-307zM594 879v307l205 205v-205h102v-307h-307z" />
<glyph unicode="&#x201c;" horiz-adv-x="1105" d="M102 776v453l410 409v-350h39l350 350v-350h103v-512h-902zM143 817h820v430h-103v291l-291 -291h-98v291l-328 -328v-393zM205 879v307l205 205v-205h102v-307h-307zM594 879v307l205 205v-205h102v-307h-307z" />
<glyph horiz-adv-x="1105" d="M102 1126v512h902v-452l-410 -410v350h-39l-350 -350v350h-103zM143 1167h103v-290l291 290h98v-290l328 327v393h-820v-430zM205 1229v307h307v-307l-205 -205v205h-102zM594 1229v307h307v-307l-205 -205v205h-102z" />
<glyph unicode="&#x201d;" horiz-adv-x="1105" d="M102 1126v512h902v-452l-410 -410v350h-39l-350 -350v350h-103zM143 1167h103v-290l291 290h98v-290l328 327v393h-820v-430zM205 1229v307h307v-307l-205 -205v205h-102zM594 1229v307h307v-307l-205 -205v205h-102z" />
<glyph unicode="&#xa2;" horiz-adv-x="1146" d="M102 520v803l215 215v100h512v-100l215 -215v-803l-215 -215v-100h-512v100zM143 539l215 -215v-78h430v78l216 215v766l-216 215v77h-430v-77l-215 -215v-766zM205 563v717l184 184h31v72h307v-72h31l184 -184v-276h-276v184h-185v-533h185v185h276v-277l-184 -184h-31 v-72h-307v72h-31z" />
<glyph unicode="&#xad;" horiz-adv-x="1024" d="M102 614v410h820v-410h-820zM143 655h738v328h-738v-328zM205 717v205h614v-205h-614z" />
<glyph unicode="&#x2000;" horiz-adv-x="817" />
<glyph unicode="&#x2001;" horiz-adv-x="1636" />
<glyph unicode="&#x2002;" horiz-adv-x="817" />
<glyph unicode="&#x2003;" horiz-adv-x="1636" />
<glyph unicode="&#x2004;" horiz-adv-x="544" />
<glyph unicode="&#x2005;" horiz-adv-x="407" />
<glyph unicode="&#x2006;" horiz-adv-x="272" />
<glyph unicode="&#x2007;" horiz-adv-x="272" />
<glyph unicode="&#x2008;" horiz-adv-x="202" />
<glyph unicode="&#x2009;" horiz-adv-x="325" />
<glyph unicode="&#x200a;" horiz-adv-x="90" />
<glyph unicode="&#x2010;" horiz-adv-x="1024" d="M102 614v410h820v-410h-820zM143 655h738v328h-738v-328zM205 717v205h614v-205h-614z" />
<glyph unicode="&#x2011;" horiz-adv-x="1024" d="M102 614v410h820v-410h-820zM143 655h738v328h-738v-328zM205 717v205h614v-205h-614z" />
<glyph unicode="&#x2012;" horiz-adv-x="1024" d="M102 614v410h820v-410h-820zM143 655h738v328h-738v-328zM205 717v205h614v-205h-614z" />
<glyph unicode="&#x2013;" horiz-adv-x="1024" d="M102 614v410h820v-410h-820z" />
<glyph unicode="&#x2014;" horiz-adv-x="2048" d="M102 614v410h1844v-410h-1844z" />
<glyph unicode="&#x2026;" horiz-adv-x="2150" d="M1536 -100v510h512v-510h-512zM1577 -59h430v428h-430v-428zM1639 0v307h307v-307h-307zM819 -100v510h512v-510h-512zM860 -59h430v428h-430v-428zM922 0v307h307v-307h-307zM102 -100v510h512v-510h-512zM143 -59h430v428h-430v-428zM205 0v307h307v-307h-307z" />
<glyph unicode="&#x202f;" horiz-adv-x="325" />
<glyph unicode="&#x205f;" horiz-adv-x="407" />
<glyph unicode="&#x2122;" horiz-adv-x="2560" d="M1228 0v1638h480l135 -338l135 338h479v-1638h-512v82l-102 -254l-103 254v-82h-512zM1269 41h430v254l144 -356l143 356v-254h430v1556h-409l-164 -407l-164 407h-410v-1556zM1331 102v1434h307l205 -512l205 512h307v-1434h-307v512l-205 -512l-205 512v-512h-307z M0 1126v512h1126v-512h-307v-1126h-512v1126h-307zM41 1167h307v-1126h430v1126h307v430h-1044v-430zM102 1229v307h922v-307h-307v-1127h-307v1127h-308z" />
<glyph unicode="&#xe000;" horiz-adv-x="1495" d="M0 1495h1495v-1495h-1495v1495z" />
<glyph unicode="&#xfb01;" horiz-adv-x="1689" d="M1106 0v1495h482v-1495h-482zM1147 41h400v1413h-400v-1413zM1209 102v1291h276v-1291h-276zM102 0v1495h850v-481h-368v-27h368v-481h-368v-506h-482zM143 41h400v506h368v399h-368v109h368v399h-768v-1413zM205 102v1291h645v-277h-369v-231h369v-277h-369v-506h-276z " />
<glyph unicode="&#xfb02;" horiz-adv-x="2058" d="M1106 0v1495h482v-1014h368v-481h-850zM1147 41h768v399h-368v1014h-400v-1413zM1209 102v1291h276v-1014h369v-277h-645zM102 0v1495h850v-481h-368v-27h368v-481h-368v-506h-482zM143 41h400v506h368v399h-368v109h368v399h-768v-1413zM205 102v1291h645v-277h-369 v-231h369v-277h-369v-506h-276z" />
<glyph unicode="&#xfb03;" horiz-adv-x="2693" d="M2109 0v1495h482v-1495h-482zM2150 41h400v1413h-400v-1413zM2212 102v1291h276v-1291h-276zM1106 0v1495h850v-481h-368v-27h368v-481h-368v-506h-482zM1147 41h400v506h368v399h-368v109h368v399h-768v-1413zM1209 102v1291h645v-277h-369v-231h369v-277h-369v-506 h-276zM102 0v1495h850v-481h-368v-27h368v-481h-368v-506h-482zM143 41h400v506h368v399h-368v109h368v399h-768v-1413zM205 102v1291h645v-277h-369v-231h369v-277h-369v-506h-276z" />
<glyph unicode="&#xfb04;" horiz-adv-x="3061" d="M2109 0v1495h482v-1014h368v-481h-850zM2150 41h768v399h-368v1014h-400v-1413zM2212 102v1291h276v-1014h369v-277h-645zM1106 0v1495h850v-481h-368v-27h368v-481h-368v-506h-482zM1147 41h400v506h368v399h-368v109h368v399h-768v-1413zM1209 102v1291h645v-277h-369 v-231h369v-277h-369v-506h-276zM102 0v1495h850v-481h-368v-27h368v-481h-368v-506h-482zM143 41h400v506h368v399h-368v109h368v399h-768v-1413zM205 102v1291h645v-277h-369v-231h369v-277h-369v-506h-276z" />
</font>
</defs>
</svg>
